<svg width="200.000000" height="200.000000" viewBox="0 0 200 200" fill="none" xmlns="http://www.w3.org/2000/svg" xmlns:xlink="http://www.w3.org/1999/xlink">
	<desc>
			Created with Pixso.
	</desc>
	<defs>
		<filter id="filter_2_36_dd" x="6.000000" y="8.999996" width="189.000000" height="189.000000" filterUnits="userSpaceOnUse" color-interpolation-filters="sRGB">
			<feFlood flood-opacity="0" result="BackgroundImageFix"/>
			<feColorMatrix in="SourceAlpha" type="matrix" values="0 0 0 0 0 0 0 0 0 0 0 0 0 0 0 0 0 0 127 0" result="hardAlpha"/>
			<feOffset dx="0" dy="4"/>
			<feGaussianBlur stdDeviation="1.33333"/>
			<feComposite in2="hardAlpha" operator="out" k2="-1" k3="1"/>
			<feColorMatrix type="matrix" values="0 0 0 0 0.54902 0 0 0 0 0.53725 0 0 0 0 0.53725 0 0 0 0.36 0"/>
			<feBlend mode="normal" in2="BackgroundImageFix" result="effect_dropShadow_1"/>
			<feBlend mode="normal" in="SourceGraphic" in2="effect_dropShadow_1" result="shape"/>
		</filter>
		<filter id="filter_2_42_dd" x="35.500000" y="93.500000" width="130.000000" height="72.000000" filterUnits="userSpaceOnUse" color-interpolation-filters="sRGB">
			<feFlood flood-opacity="0" result="BackgroundImageFix"/>
			<feColorMatrix in="SourceAlpha" type="matrix" values="0 0 0 0 0 0 0 0 0 0 0 0 0 0 0 0 0 0 127 0" result="hardAlpha"/>
			<feOffset dx="0" dy="4"/>
			<feGaussianBlur stdDeviation="1.33333"/>
			<feComposite in2="hardAlpha" operator="out" k2="-1" k3="1"/>
			<feColorMatrix type="matrix" values="0 0 0 0 0 0 0 0 0 0 0 0 0 0 0 0 0 0 0.25 0"/>
			<feBlend mode="normal" in2="BackgroundImageFix" result="effect_dropShadow_1"/>
			<feBlend mode="normal" in="SourceGraphic" in2="effect_dropShadow_1" result="shape"/>
		</filter>
		<filter id="filter_2_43_dd" x="35.500000" y="30.500000" width="130.000000" height="72.000000" filterUnits="userSpaceOnUse" color-interpolation-filters="sRGB">
			<feFlood flood-opacity="0" result="BackgroundImageFix"/>
			<feColorMatrix in="SourceAlpha" type="matrix" values="0 0 0 0 0 0 0 0 0 0 0 0 0 0 0 0 0 0 127 0" result="hardAlpha"/>
			<feOffset dx="0" dy="4"/>
			<feGaussianBlur stdDeviation="1.33333"/>
			<feComposite in2="hardAlpha" operator="out" k2="-1" k3="1"/>
			<feColorMatrix type="matrix" values="0 0 0 0 0 0 0 0 0 0 0 0 0 0 0 0 0 0 0.25 0"/>
			<feBlend mode="normal" in2="BackgroundImageFix" result="effect_dropShadow_1"/>
			<feBlend mode="normal" in="SourceGraphic" in2="effect_dropShadow_1" result="shape"/>
		</filter>
		<clipPath id="clip2_1">
			<rect id="toTop" width="200.000000" height="200.000000" fill="white"/>
		</clipPath>
	</defs>
	<rect width="200.000000" height="200.000000" fill="#EFEFEF"/>
	<g clip-path="url(#clip2_1)">
		<g filter="url(#filter_2_36_dd)">
			<rect id="矩形 1" x="11.500000" y="10.500000" rx="41.000000" width="178.000000" height="178.000000" fill="#C7E5F8"/>
		</g>
		<rect id="矩形 1" x="11.500000" y="10.500000" rx="41.000000" width="178.000000" height="178.000000" stroke="#FFFFFF" stroke-opacity="0.48" stroke-width="3.000000"/>
		<g filter="url(#filter_2_42_dd)">
			<path id="path2" d="M93.3814 96.6361C97.3187 93.1213 103.713 93.1213 107.65 96.6361L158.047 141.626C161.984 145.141 161.984 150.849 158.047 154.364C154.11 157.879 147.716 157.879 143.778 154.364L100.5 115.729L57.2216 154.336C53.2843 157.851 46.8902 157.851 42.9529 154.336C39.0157 150.821 39.0157 145.113 42.9529 141.598L93.3814 96.6361Z" fill-rule="nonzero" fill="#FFFFFF"/>
		</g>
		<path id="path2" d="M107.65 96.6361L158.047 141.626C161.984 145.141 161.984 150.849 158.047 154.364C154.11 157.879 147.716 157.879 143.778 154.364L100.5 115.729L57.2216 154.336C53.2843 157.851 46.8902 157.851 42.9529 154.336C39.0157 150.821 39.0157 145.113 42.9529 141.598L93.3814 96.6361C97.3187 93.1213 103.713 93.1213 107.65 96.6361Z" stroke="#F3E6E6"/>
		<g filter="url(#filter_2_43_dd)">
			<path id="path" d="M93.3814 33.6361C97.3187 30.1213 103.713 30.1213 107.65 33.6361L158.047 78.6261C161.984 82.1409 161.984 87.849 158.047 91.3639C154.11 94.8787 147.716 94.8787 143.778 91.3639L100.5 52.7287L57.2216 91.3358C53.2843 94.8506 46.8902 94.8506 42.9529 91.3358C39.0157 87.8209 39.0157 82.1128 42.9529 78.598L93.3814 33.6361Z" fill-rule="nonzero" fill="#FFFFFF"/>
		</g>
		<path id="path" d="M107.65 33.6361L158.047 78.6261C161.984 82.1409 161.984 87.849 158.047 91.3639C154.11 94.8787 147.716 94.8787 143.778 91.3639L100.5 52.7287L57.2216 91.3358C53.2843 94.8506 46.8902 94.8506 42.9529 91.3358C39.0157 87.8209 39.0157 82.1128 42.9529 78.598L93.3814 33.6361C97.3187 30.1213 103.713 30.1213 107.65 33.6361Z" stroke="#F3E6E6"/>
	</g>
</svg>
